<svg width="48" height="48" version="1.1" viewBox="0 0 12.7 12.7" xmlns="http://www.w3.org/2000/svg" xmlns:cc="http://creativecommons.org/ns#" xmlns:dc="http://purl.org/dc/elements/1.1/" xmlns:rdf="http://www.w3.org/1999/02/22-rdf-syntax-ns#">
 <metadata>
  <rdf:RDF>
   <cc:Work rdf:about="">
    <dc:format>image/svg+xml</dc:format>
    <dc:type rdf:resource="http://purl.org/dc/dcmitype/StillImage"/>
    <dc:title/>
    <cc:license rdf:resource="http://creativecommons.org/licenses/by-sa/4.0/"/>
   </cc:Work>
   <cc:License rdf:about="http://creativecommons.org/licenses/by-sa/4.0/">
    <cc:permits rdf:resource="http://creativecommons.org/ns#Reproduction"/>
    <cc:permits rdf:resource="http://creativecommons.org/ns#Distribution"/>
    <cc:requires rdf:resource="http://creativecommons.org/ns#Notice"/>
    <cc:requires rdf:resource="http://creativecommons.org/ns#Attribution"/>
    <cc:permits rdf:resource="http://creativecommons.org/ns#DerivativeWorks"/>
    <cc:requires rdf:resource="http://creativecommons.org/ns#ShareAlike"/>
   </cc:License>
  </rdf:RDF>
 </metadata>
 <g transform="translate(0,-284.3)">
  <path d="m6.326 297c3.593-0.01795 6.332-2.877 6.374-6.388-0.02941-3.532-2.593-6.3-6.398-6.312-3.932 0.0318-6.326 3.34-6.302 6.359-0.003162 2.755 2.47 6.289 6.325 6.341z" style="fill:#000800;stroke-width:.05361"/>
  <path d="m0.3313 289.2c0.09884-0.4655 0.4562-1.334 0.7182-1.745 0.2438-0.3824 0.2782-0.3824 0.1904 0-0.02707 0.1181-0.07587 0.43-0.1084 0.6931-0.05724 0.4634-0.06702 0.4871-0.312 0.7558-0.1391 0.1525-0.3126 0.3902-0.3855 0.528-0.1352 0.2554-0.2182 0.3261-0.1843 0.1568 0.01037-0.0517 0.04705-0.2268 0.08152-0.3892z" style="fill-opacity:.9898;fill:#ffb900;stroke-width:.05361"/>
  <path d="m0.4101 290.4c0.09959-0.5023 0.4325-1.208 0.6858-1.453l0.1861-0.1802 0.6825 0.1713c0.9516 0.2388 0.9139 0.2186 0.9579 0.5125 0.06248 0.4178 0.3452 1.367 0.5496 1.846 0.1627 0.3809 0.1838 0.4732 0.135 0.5905-0.03181 0.0764-0.2344 0.5341-0.4503 1.017l-0.3924 0.878-0.2953-0.0304c-0.3876-0.0399-0.9528-0.2173-1.182-0.3709-0.32-0.2146-0.7239-1.128-0.8798-1.99-0.09212-0.509-0.09211-0.5128 0.002529-0.991z" style="fill-opacity:.9898;fill:#ffb900;stroke-width:.05361"/>
  <path d="m1.16 293.7c0.01606-0.0161 0.2393 0.0384 0.4959 0.1211 0.2567 0.0828 0.6179 0.1676 0.8027 0.1886 0.2531 0.0287 0.3554 0.0659 0.4147 0.1508 0.3069 0.4392 1.141 1.154 1.649 1.412l0.2594 0.132-0.03725 0.3857c-0.02049 0.2121-0.05774 0.4075-0.08281 0.4341-0.1007 0.1069-1.223-0.3969-1.818-0.8162-0.6688-0.4714-1.591-1.467-1.675-1.809-0.0406-0.1651-0.04073-0.1681-0.00956-0.1993z" style="fill-opacity:.9898;fill:#ffb900;stroke-width:.05361"/>
  <path d="m3.133 285.3c0.413-0.2581 1.157-0.5815 1.479-0.6426l0.1874-0.0356-0.1339 0.1129c-0.5945 0.5015-0.6052 0.5074-1.177 0.6514-0.3098 0.078-0.6055 0.1591-0.6571 0.1802-0.2043 0.0835-0.07396-0.0316 0.3018-0.2664z" style="fill-opacity:.9898;fill:#ffb900;stroke-width:.05361"/>
  <path d="m3.441 288.7c0.1808-0.2445 0.5563-0.6693 0.8344-0.944l0.5057-0.4995 0.3034 5.5e-4c0.3598 6.3e-4 1.35 0.196 1.996 0.3938l0.4608 0.1411 0.2199 0.5777c0.2313 0.6075 0.4716 1.4 0.524 1.729 0.02972 0.1864 0.00632 0.2232-0.5547 0.8638-0.6375 0.7281-1.201 1.286-1.299 1.286-0.07764 0-1.669-0.346-2.164-0.4705l-0.37-0.0931-0.1829-0.4294c-0.2226-0.5228-0.5481-1.651-0.5989-2.075-0.00253-0.0196 0.1437-0.2356 0.3245-0.4801z" style="fill-opacity:.9898;fill:#ffb900;stroke-width:.05361"/>
  <path d="m4.518 285.3c0.2916-0.2152 1.117-0.6156 1.445-0.7011 0.3207-0.0835 0.9837-6e-3 1.671 0.1965 0.8253 0.2425 1.053 0.3532 1.216 0.5913 0.1475 0.2155 0.4199 0.8787 0.4199 1.022 0 0.0421-0.09036 0.1347-0.2008 0.2056-0.1104 0.0709-0.4881 0.3147-0.8392 0.5418l-0.6384 0.413-0.5664-0.1613c-0.7343-0.2091-0.9939-0.265-1.608-0.3465l-0.5062-0.0672-0.3058-0.6695c-0.1682-0.3682-0.3078-0.7116-0.3104-0.7631-0.00253-0.0514 0.09776-0.1692 0.2229-0.2616z" style="fill-opacity:.9898;fill:#ffb900;stroke-width:.05361"/>
  <path d="m5.187 295.7c0.6354-0.1434 1.037-0.303 1.552-0.6165 0.1907-0.1161 0.3785-0.2112 0.4173-0.2112 0.03883 0 0.2713 0.0475 0.5166 0.1056s0.7472 0.1369 1.115 0.1751l0.6693 0.0694 0.01663 0.2622c0.02701 0.4259-0.05989 0.5584-0.5003 0.7624-1.013 0.4692-2.392 0.6726-3.425 0.5049-0.4316-0.0701-0.5087-0.1686-0.5087-0.65 0-0.3584 0.00442-0.3697 0.1472-0.402z" style="fill-opacity:.9898;fill:#ffb900;stroke-width:.05361"/>
  <path d="m6.855 292.2c0.08549-0.0634 0.4288-0.4226 0.763-0.7984 0.3342-0.3757 0.6799-0.7631 0.7682-0.8608l0.1606-0.1777 0.9638 0.1326c0.5301 0.0729 1.027 0.1466 1.104 0.1636 0.2864 0.063 0.6358 1.141 0.6358 1.961 0 0.3295-0.02448 0.4299-0.1724 0.7081-0.1845 0.3469-0.8134 1.053-1.238 1.391-0.2339 0.1858-0.2897 0.2058-0.5738 0.2058-0.4318 0-1.456-0.1483-1.784-0.2583l-0.2705-0.0906-0.143-0.6441c-0.07862-0.3543-0.1916-0.8012-0.2511-0.993-0.1529-0.4932-0.1474-0.6023 0.03725-0.7391z" style="fill-opacity:.9898;fill:#ffb900;stroke-width:.05361"/>
  <path d="m9.24 285.2c0.1151 0 1 0.6086 1.349 0.9279 0.38 0.3473 0.8572 0.9439 1.149 1.436 0.2497 0.4213 0.2368 0.4972-0.09541 0.5596-0.1888 0.0355-0.2037 0.0254-0.5963-0.4023-0.2215-0.2413-0.6428-0.6248-0.9362-0.8522l-0.5335-0.4135-0.2016-0.5608c-0.2304-0.6408-0.2409-0.6949-0.1354-0.6949z" style="fill-opacity:.9898;fill:#ffb900;stroke-width:.05361"/>
  <path d="m11.11 290.2c0.1399-0.4207 0.2669-1.01 0.3241-1.504l0.03574-0.3086h0.2813c0.3455 0 0.4643 0.1088 0.5859 0.5368 0.3131 1.102 0.3232 2.165 0.03163 3.32-0.1269 0.5031-0.2328 0.6101-0.581 0.5874l-0.2452-0.0161-0.03649-0.3699c-0.05357-0.5434-0.1901-1.09-0.3636-1.455-0.08414-0.1771-0.155-0.3397-0.1576-0.3612s0.05382-0.2148 0.1252-0.4294z" style="fill-opacity:.9898;fill:#ffb900;stroke-width:.05361"/>
 </g>
</svg>
